<mxfile host="65bd71144e">
    <diagram id="PD0efYk7BR7c5SwIynE0" name="第 1 页">
        <mxGraphModel dx="661" dy="370" grid="1" gridSize="10" guides="1" tooltips="1" connect="1" arrows="1" fold="1" page="1" pageScale="1" pageWidth="827" pageHeight="1169" math="0" shadow="0">
            <root>
                <mxCell id="0"/>
                <mxCell id="1" parent="0"/>
                <mxCell id="51" value="" style="shape=table;startSize=0;container=1;collapsible=0;childLayout=tableLayout;fontSize=20;labelPosition=left;verticalLabelPosition=middle;align=right;verticalAlign=middle;fontFamily=Times New Roman;" parent="1" vertex="1">
                    <mxGeometry x="414" y="310" width="110" height="230" as="geometry"/>
                </mxCell>
                <mxCell id="52" value="" style="shape=tableRow;horizontal=0;startSize=0;swimlaneHead=0;swimlaneBody=0;top=0;left=0;bottom=0;right=0;collapsible=0;dropTarget=0;fillColor=none;points=[[0,0.5],[1,0.5]];portConstraint=eastwest;fontSize=20;fontFamily=Times New Roman;" parent="51" vertex="1">
                    <mxGeometry width="110" height="34" as="geometry"/>
                </mxCell>
                <mxCell id="53" value="\n" style="shape=partialRectangle;html=1;whiteSpace=wrap;connectable=0;overflow=hidden;fillColor=none;top=0;left=0;bottom=0;right=0;pointerEvents=1;fontSize=20;fontFamily=Times New Roman;" parent="52" vertex="1">
                    <mxGeometry width="37" height="34" as="geometry">
                        <mxRectangle width="37" height="34" as="alternateBounds"/>
                    </mxGeometry>
                </mxCell>
                <mxCell id="54" value="00000" style="shape=partialRectangle;html=1;whiteSpace=wrap;connectable=0;overflow=hidden;fillColor=none;top=0;left=0;bottom=0;right=0;pointerEvents=1;fontSize=20;labelPosition=center;verticalLabelPosition=middle;align=left;verticalAlign=middle;spacingLeft=3;fontFamily=Times New Roman;" parent="52" vertex="1">
                    <mxGeometry x="37" width="73" height="34" as="geometry">
                        <mxRectangle width="73" height="34" as="alternateBounds"/>
                    </mxGeometry>
                </mxCell>
                <mxCell id="55" value="" style="shape=tableRow;horizontal=0;startSize=0;swimlaneHead=0;swimlaneBody=0;top=0;left=0;bottom=0;right=0;collapsible=0;dropTarget=0;fillColor=none;points=[[0,0.5],[1,0.5]];portConstraint=eastwest;fontSize=20;fontFamily=Times New Roman;" parent="51" vertex="1">
                    <mxGeometry y="34" width="110" height="32" as="geometry"/>
                </mxCell>
                <mxCell id="56" value="s" style="shape=partialRectangle;html=1;whiteSpace=wrap;connectable=0;overflow=hidden;fillColor=none;top=0;left=0;bottom=0;right=0;pointerEvents=1;fontSize=20;fontFamily=Times New Roman;" parent="55" vertex="1">
                    <mxGeometry width="37" height="32" as="geometry">
                        <mxRectangle width="37" height="32" as="alternateBounds"/>
                    </mxGeometry>
                </mxCell>
                <mxCell id="57" value="00001" style="shape=partialRectangle;html=1;whiteSpace=wrap;connectable=0;overflow=hidden;fillColor=none;top=0;left=0;bottom=0;right=0;pointerEvents=1;fontSize=20;labelPosition=center;verticalLabelPosition=middle;align=left;verticalAlign=middle;spacingLeft=3;fontFamily=Times New Roman;" parent="55" vertex="1">
                    <mxGeometry x="37" width="73" height="32" as="geometry">
                        <mxRectangle width="73" height="32" as="alternateBounds"/>
                    </mxGeometry>
                </mxCell>
                <mxCell id="58" value="" style="shape=tableRow;horizontal=0;startSize=0;swimlaneHead=0;swimlaneBody=0;top=0;left=0;bottom=0;right=0;collapsible=0;dropTarget=0;fillColor=none;points=[[0,0.5],[1,0.5]];portConstraint=eastwest;fontSize=20;fontFamily=Times New Roman;" parent="51" vertex="1">
                    <mxGeometry y="66" width="110" height="34" as="geometry"/>
                </mxCell>
                <mxCell id="59" value="t" style="shape=partialRectangle;html=1;whiteSpace=wrap;connectable=0;overflow=hidden;fillColor=none;top=0;left=0;bottom=0;right=0;pointerEvents=1;fontSize=20;fontFamily=Times New Roman;" parent="58" vertex="1">
                    <mxGeometry width="37" height="34" as="geometry">
                        <mxRectangle width="37" height="34" as="alternateBounds"/>
                    </mxGeometry>
                </mxCell>
                <mxCell id="60" value="0001" style="shape=partialRectangle;html=1;whiteSpace=wrap;connectable=0;overflow=hidden;fillColor=none;top=0;left=0;bottom=0;right=0;pointerEvents=1;fontSize=20;labelPosition=center;verticalLabelPosition=middle;align=left;verticalAlign=middle;spacingLeft=3;fontFamily=Times New Roman;" parent="58" vertex="1">
                    <mxGeometry x="37" width="73" height="34" as="geometry">
                        <mxRectangle width="73" height="34" as="alternateBounds"/>
                    </mxGeometry>
                </mxCell>
                <mxCell id="61" value="" style="shape=tableRow;horizontal=0;startSize=0;swimlaneHead=0;swimlaneBody=0;top=0;left=0;bottom=0;right=0;collapsible=0;dropTarget=0;fillColor=none;points=[[0,0.5],[1,0.5]];portConstraint=eastwest;fontSize=20;fontFamily=Times New Roman;" parent="51" vertex="1">
                    <mxGeometry y="100" width="110" height="30" as="geometry"/>
                </mxCell>
                <mxCell id="62" value="a" style="shape=partialRectangle;html=1;whiteSpace=wrap;connectable=0;overflow=hidden;fillColor=none;top=0;left=0;bottom=0;right=0;pointerEvents=1;fontSize=20;fontFamily=Times New Roman;" parent="61" vertex="1">
                    <mxGeometry width="37" height="30" as="geometry">
                        <mxRectangle width="37" height="30" as="alternateBounds"/>
                    </mxGeometry>
                </mxCell>
                <mxCell id="63" value="001" style="shape=partialRectangle;html=1;whiteSpace=wrap;connectable=0;overflow=hidden;fillColor=none;top=0;left=0;bottom=0;right=0;pointerEvents=1;fontSize=20;labelPosition=center;verticalLabelPosition=middle;align=left;verticalAlign=middle;spacingLeft=3;fontFamily=Times New Roman;" parent="61" vertex="1">
                    <mxGeometry x="37" width="73" height="30" as="geometry">
                        <mxRectangle width="73" height="30" as="alternateBounds"/>
                    </mxGeometry>
                </mxCell>
                <mxCell id="64" value="" style="shape=tableRow;horizontal=0;startSize=0;swimlaneHead=0;swimlaneBody=0;top=0;left=0;bottom=0;right=0;collapsible=0;dropTarget=0;fillColor=none;points=[[0,0.5],[1,0.5]];portConstraint=eastwest;fontSize=20;fontFamily=Times New Roman;" parent="51" vertex="1">
                    <mxGeometry y="130" width="110" height="34" as="geometry"/>
                </mxCell>
                <mxCell id="65" value="e" style="shape=partialRectangle;html=1;whiteSpace=wrap;connectable=0;overflow=hidden;fillColor=none;top=0;left=0;bottom=0;right=0;pointerEvents=1;fontSize=20;fontFamily=Times New Roman;" parent="64" vertex="1">
                    <mxGeometry width="37" height="34" as="geometry">
                        <mxRectangle width="37" height="34" as="alternateBounds"/>
                    </mxGeometry>
                </mxCell>
                <mxCell id="66" value="01" style="shape=partialRectangle;html=1;whiteSpace=wrap;connectable=0;overflow=hidden;fillColor=none;top=0;left=0;bottom=0;right=0;pointerEvents=1;fontSize=20;labelPosition=center;verticalLabelPosition=middle;align=left;verticalAlign=middle;spacingLeft=3;fontFamily=Times New Roman;" parent="64" vertex="1">
                    <mxGeometry x="37" width="73" height="34" as="geometry">
                        <mxRectangle width="73" height="34" as="alternateBounds"/>
                    </mxGeometry>
                </mxCell>
                <mxCell id="73" value="" style="shape=tableRow;horizontal=0;startSize=0;swimlaneHead=0;swimlaneBody=0;top=0;left=0;bottom=0;right=0;collapsible=0;dropTarget=0;fillColor=none;points=[[0,0.5],[1,0.5]];portConstraint=eastwest;fontSize=20;fontFamily=Times New Roman;" parent="51" vertex="1">
                    <mxGeometry y="164" width="110" height="32" as="geometry"/>
                </mxCell>
                <mxCell id="74" value="i" style="shape=partialRectangle;html=1;whiteSpace=wrap;connectable=0;overflow=hidden;fillColor=none;top=0;left=0;bottom=0;right=0;pointerEvents=1;fontSize=20;fontFamily=Times New Roman;" parent="73" vertex="1">
                    <mxGeometry width="37" height="32" as="geometry">
                        <mxRectangle width="37" height="32" as="alternateBounds"/>
                    </mxGeometry>
                </mxCell>
                <mxCell id="75" value="10" style="shape=partialRectangle;html=1;whiteSpace=wrap;connectable=0;overflow=hidden;fillColor=none;top=0;left=0;bottom=0;right=0;pointerEvents=1;fontSize=20;labelPosition=center;verticalLabelPosition=middle;align=left;verticalAlign=middle;spacingLeft=3;fontFamily=Times New Roman;" parent="73" vertex="1">
                    <mxGeometry x="37" width="73" height="32" as="geometry">
                        <mxRectangle width="73" height="32" as="alternateBounds"/>
                    </mxGeometry>
                </mxCell>
                <mxCell id="67" value="" style="shape=tableRow;horizontal=0;startSize=0;swimlaneHead=0;swimlaneBody=0;top=0;left=0;bottom=0;right=0;collapsible=0;dropTarget=0;fillColor=none;points=[[0,0.5],[1,0.5]];portConstraint=eastwest;fontSize=20;fontFamily=Times New Roman;" parent="51" vertex="1">
                    <mxGeometry y="196" width="110" height="34" as="geometry"/>
                </mxCell>
                <mxCell id="68" value="r" style="shape=partialRectangle;html=1;whiteSpace=wrap;connectable=0;overflow=hidden;fillColor=none;top=0;left=0;bottom=0;right=0;pointerEvents=1;fontSize=20;fontFamily=Times New Roman;" parent="67" vertex="1">
                    <mxGeometry width="37" height="34" as="geometry">
                        <mxRectangle width="37" height="34" as="alternateBounds"/>
                    </mxGeometry>
                </mxCell>
                <mxCell id="69" value="11" style="shape=partialRectangle;html=1;whiteSpace=wrap;connectable=0;overflow=hidden;fillColor=none;top=0;left=0;bottom=0;right=0;pointerEvents=1;fontSize=20;labelPosition=center;verticalLabelPosition=middle;align=left;verticalAlign=middle;spacingLeft=3;fontFamily=Times New Roman;" parent="67" vertex="1">
                    <mxGeometry x="37" width="73" height="34" as="geometry">
                        <mxRectangle width="73" height="34" as="alternateBounds"/>
                    </mxGeometry>
                </mxCell>
                <mxCell id="2" value="\n" style="ellipse;whiteSpace=wrap;html=1;fontSize=20;fontFamily=Times New Roman;" parent="1" vertex="1">
                    <mxGeometry x="90" y="510.32" width="40" height="40" as="geometry"/>
                </mxCell>
                <mxCell id="26" style="edgeStyle=none;html=1;fontSize=20;endArrow=none;endFill=0;fontFamily=Times New Roman;" parent="1" source="3" target="2" edge="1">
                    <mxGeometry relative="1" as="geometry">
                        <mxPoint x="110" y="500.32" as="sourcePoint"/>
                        <mxPoint x="120" y="520.32" as="targetPoint"/>
                    </mxGeometry>
                </mxCell>
                <mxCell id="3" value="4" style="ellipse;whiteSpace=wrap;html=1;fontSize=20;fontFamily=Times New Roman;" parent="1" vertex="1">
                    <mxGeometry x="120" y="460.32" width="40" height="40" as="geometry"/>
                </mxCell>
                <mxCell id="4" value="s" style="ellipse;whiteSpace=wrap;html=1;fontSize=20;fontFamily=Times New Roman;" parent="1" vertex="1">
                    <mxGeometry x="150" y="510.32" width="40" height="40" as="geometry"/>
                </mxCell>
                <mxCell id="27" style="edgeStyle=none;html=1;fontSize=20;endArrow=none;endFill=0;fontFamily=Times New Roman;" parent="1" source="3" target="4" edge="1">
                    <mxGeometry relative="1" as="geometry"/>
                </mxCell>
                <mxCell id="5" value="t" style="ellipse;whiteSpace=wrap;html=1;fontSize=20;fontFamily=Times New Roman;" parent="1" vertex="1">
                    <mxGeometry x="180" y="460.32" width="40" height="40" as="geometry"/>
                </mxCell>
                <mxCell id="6" value="a" style="ellipse;whiteSpace=wrap;html=1;fontSize=20;fontFamily=Times New Roman;" parent="1" vertex="1">
                    <mxGeometry x="210" y="410.32" width="40" height="40" as="geometry"/>
                </mxCell>
                <mxCell id="24" style="edgeStyle=none;html=1;fontSize=20;endArrow=none;endFill=0;fontFamily=Times New Roman;" parent="1" source="7" target="3" edge="1">
                    <mxGeometry relative="1" as="geometry"/>
                </mxCell>
                <mxCell id="25" style="edgeStyle=none;html=1;fontSize=20;endArrow=none;endFill=0;fontFamily=Times New Roman;" parent="1" source="7" target="5" edge="1">
                    <mxGeometry relative="1" as="geometry"/>
                </mxCell>
                <mxCell id="7" value="8" style="ellipse;whiteSpace=wrap;html=1;fontSize=20;fontFamily=Times New Roman;" parent="1" vertex="1">
                    <mxGeometry x="150" y="410.32" width="40" height="40" as="geometry"/>
                </mxCell>
                <mxCell id="8" value="i" style="ellipse;whiteSpace=wrap;html=1;fontSize=20;fontFamily=Times New Roman;" parent="1" vertex="1">
                    <mxGeometry x="300" y="360" width="40" height="40" as="geometry"/>
                </mxCell>
                <mxCell id="9" value="e" style="ellipse;whiteSpace=wrap;html=1;fontSize=20;fontFamily=Times New Roman;" parent="1" vertex="1">
                    <mxGeometry x="240" y="360" width="40" height="40" as="geometry"/>
                </mxCell>
                <mxCell id="10" value="r" style="ellipse;whiteSpace=wrap;html=1;fontSize=20;fontFamily=Times New Roman;" parent="1" vertex="1">
                    <mxGeometry x="360" y="360" width="40" height="40" as="geometry"/>
                </mxCell>
                <mxCell id="20" style="edgeStyle=none;html=1;fontSize=20;endArrow=none;endFill=0;fontFamily=Times New Roman;" parent="1" source="11" target="8" edge="1">
                    <mxGeometry relative="1" as="geometry"/>
                </mxCell>
                <mxCell id="21" style="edgeStyle=none;html=1;fontSize=20;endArrow=none;endFill=0;fontFamily=Times New Roman;" parent="1" source="11" target="10" edge="1">
                    <mxGeometry relative="1" as="geometry">
                        <mxPoint x="370" y="370" as="targetPoint"/>
                    </mxGeometry>
                </mxCell>
                <mxCell id="11" value="25" style="ellipse;whiteSpace=wrap;html=1;fontSize=20;fontFamily=Times New Roman;" parent="1" vertex="1">
                    <mxGeometry x="330" y="310" width="40" height="40" as="geometry"/>
                </mxCell>
                <mxCell id="22" style="edgeStyle=none;html=1;fontSize=20;endArrow=none;endFill=0;fontFamily=Times New Roman;" parent="1" source="12" target="7" edge="1">
                    <mxGeometry relative="1" as="geometry">
                        <mxPoint x="176.42229123600043" y="399.99739820199767" as="sourcePoint"/>
                    </mxGeometry>
                </mxCell>
                <mxCell id="23" style="edgeStyle=none;html=1;fontSize=20;endArrow=none;endFill=0;fontFamily=Times New Roman;" parent="1" source="12" target="6" edge="1">
                    <mxGeometry relative="1" as="geometry"/>
                </mxCell>
                <mxCell id="12" value="18" style="ellipse;whiteSpace=wrap;html=1;fontSize=20;fontFamily=Times New Roman;" parent="1" vertex="1">
                    <mxGeometry x="180" y="360" width="40" height="40" as="geometry"/>
                </mxCell>
                <mxCell id="17" style="edgeStyle=none;html=1;fontSize=20;endArrow=none;endFill=0;fontFamily=Times New Roman;" parent="1" source="13" target="11" edge="1">
                    <mxGeometry relative="1" as="geometry"/>
                </mxCell>
                <mxCell id="13" value="58" style="ellipse;whiteSpace=wrap;html=1;fontSize=20;fontFamily=Times New Roman;" parent="1" vertex="1">
                    <mxGeometry x="270" y="260" width="40" height="40" as="geometry"/>
                </mxCell>
                <mxCell id="18" style="edgeStyle=none;html=1;fontSize=20;endArrow=none;endFill=0;fontFamily=Times New Roman;" parent="1" source="14" target="12" edge="1">
                    <mxGeometry relative="1" as="geometry"/>
                </mxCell>
                <mxCell id="19" style="edgeStyle=none;html=1;fontSize=20;endArrow=none;endFill=0;fontFamily=Times New Roman;" parent="1" source="14" target="9" edge="1">
                    <mxGeometry relative="1" as="geometry">
                        <mxPoint x="210" y="320" as="targetPoint"/>
                    </mxGeometry>
                </mxCell>
                <mxCell id="14" value="33" style="ellipse;whiteSpace=wrap;html=1;fontSize=20;fontFamily=Times New Roman;" parent="1" vertex="1">
                    <mxGeometry x="210" y="310" width="40" height="40" as="geometry"/>
                </mxCell>
                <mxCell id="16" style="edgeStyle=none;html=1;fontSize=20;endArrow=none;endFill=0;fontFamily=Times New Roman;" parent="1" source="13" target="14" edge="1">
                    <mxGeometry relative="1" as="geometry"/>
                </mxCell>
            </root>
        </mxGraphModel>
    </diagram>
</mxfile>